<svg fill="#fff" id="Layer_1" viewBox="0 0 512 512" xmlns="http://www.w3.org/2000/svg" data-name="Layer 1"><path d="m256 6c-138.071 0-250 111.929-250 250s111.929 250 250 250 250-111.929 250-250-111.929-250-250-250zm3.23 401.227c-27.993 0-53.83-7.48-76.439-19.237l-88.283 27.786 29.068-83.358c-13.995-23.512-22.608-51.3-22.608-80.152 0-86.565 71.056-156.03 158.262-156.03 87.206-1.069 158.262 68.4 158.262 154.961s-71.056 156.03-158.262 156.03z"></path><path d="m259.23 119.747c-73.209 0-133.5 58.778-133.5 131.45a127.415 127.415 0 0 0 25.84 76.946l-16.15 49.16 51.678-16.03a133.369 133.369 0 0 0 73.21 21.374c73.209 0 133.5-58.779 133.5-131.45-1.079-72.672-61.368-131.45-134.578-131.45zm79.085 177.14-1.615 7.713a33.569 33.569 0 0 1 -14.61 21.239c-9.572 6.011-21.865 9.017-37.583 4.609-48.666-13.726-76.173-45.784-90.985-65.821s-20.554-40.074-16.826-56.4c2.519-10.92 10.579-19.436 15.617-23.744a12.825 12.825 0 0 1 8.968-3l10.378.6a5.384 5.384 0 0 1 4.635 3.306l15.113 35.264a5.405 5.405 0 0 1 -.907 5.611l-13.2 15.127a3.94 3.94 0 0 0 -.5 4.408c17.432 33.261 49.07 46.486 58.541 49.792a3.937 3.937 0 0 0 4.433-1.3l13.8-17.832a5.453 5.453 0 0 1 6.549-1.6l35.165 16.029a5.443 5.443 0 0 1 3.027 5.999z"></path></svg>